<svg xmlns="http://www.w3.org/2000/svg" viewBox="0 0 1400 593" width="1400" height="593" fill="none"><rect width="1400" height="593" fill="#0a0a0a"/><defs><pattern id="g" width="56" height="56" patternUnits="userSpaceOnUse"><path d="M56 0H0V56" stroke="rgba(255,255,255,0.055)" stroke-width="1"/></pattern><linearGradient id="fade" x1="0" y1="0" x2="0" y2="1"><stop offset="0" stop-color="#fff" stop-opacity="1"/><stop offset="0.58" stop-color="#fff" stop-opacity="1"/><stop offset="0.76" stop-color="#fff" stop-opacity="0.25"/><stop offset="0.9" stop-color="#fff" stop-opacity="0"/></linearGradient><mask id="m"><rect width="1400" height="593" fill="url(#fade)"/></mask><marker id="a" markerWidth="7" markerHeight="6" refX="6.5" refY="3" orient="auto"><path d="M0 0 L7 3 L0 6" fill="rgba(255,255,255,0.17)"/></marker></defs><g mask="url(#m)"><rect width="1400" height="593" fill="url(#g)"/><rect x="110" y="130" width="210" height="72" rx="3" fill="rgba(255,255,255,0.025)" stroke="rgba(255,255,255,0.17)" stroke-opacity="1" stroke-width="1.5"/><text x="215.0" y="171.0" font-family="ui-monospace,SFMono-Regular,Menlo,monospace" font-size="15" letter-spacing="2.5" text-anchor="middle" fill="rgba(255,255,255,0.42)" fill-opacity="1">scan</text><rect x="380" y="130" width="210" height="72" rx="3" fill="rgba(255,255,255,0.025)" stroke="#FF3333" stroke-opacity="0.6" stroke-width="1.5"/><text x="485.0" y="171.0" font-family="ui-monospace,SFMono-Regular,Menlo,monospace" font-size="15" letter-spacing="2.5" text-anchor="middle" fill="#FF3333" fill-opacity="0.8">explain</text><path d="M320 166 L380 166" stroke="rgba(255,255,255,0.17)" stroke-opacity="1" stroke-width="1.5" marker-end="url(#a)"/><rect x="650" y="130" width="210" height="72" rx="3" fill="rgba(255,255,255,0.025)" stroke="rgba(255,255,255,0.17)" stroke-opacity="1" stroke-width="1.5"/><text x="755.0" y="171.0" font-family="ui-monospace,SFMono-Regular,Menlo,monospace" font-size="15" letter-spacing="2.5" text-anchor="middle" fill="rgba(255,255,255,0.42)" fill-opacity="1">remediate</text><path d="M590 166 L650 166" stroke="rgba(255,255,255,0.17)" stroke-opacity="1" stroke-width="1.5" marker-end="url(#a)"/><path d="M860 166 L955 166" stroke="rgba(255,255,255,0.17)" stroke-opacity="1" stroke-width="1.5" marker-end="url(#a)"/><rect x="955" y="111" width="230" height="110" rx="3" fill="rgba(255,255,255,0.025)" stroke="#FF3333" stroke-opacity="0.6" stroke-width="1.5"/><text x="1070" y="170" font-family="ui-monospace,SFMono-Regular,Menlo,monospace" font-size="54" text-anchor="middle" fill="#FF3333" fill-opacity="0.8">0</text><text x="1070" y="198" font-family="ui-monospace,SFMono-Regular,Menlo,monospace" font-size="11" letter-spacing="3" text-anchor="middle" fill="rgba(255,255,255,0.24)">VIOLATIONS</text><path d="M1070 221 L1070 300 L215 300 L215 202" stroke="rgba(255,255,255,0.17)" stroke-opacity="1" stroke-width="1.5" stroke-dasharray="5 5" marker-end="url(#a)"/></g></svg>